<svg width="38" height="39" viewBox="0 0 38 39" fill="none" xmlns="http://www.w3.org/2000/svg">
<path fill-rule="evenodd" clip-rule="evenodd" d="M20.2667 24.8644V10.5334H17.7333V24.8467L12.8592 19.1822L10.9389 20.8288L19.0025 30.2072L27.0965 20.8339L25.1763 19.1796L20.2667 24.8644ZM19 0.400024C8.50693 0.400024 0 8.90696 0 19.4C0 29.8931 8.50693 38.4 19 38.4C29.4931 38.4 38 29.8931 38 19.4C38 8.90696 29.4931 0.400024 19 0.400024ZM19 35.8667C9.92053 35.8667 2.53333 28.4795 2.53333 19.4C2.53333 10.3206 9.92053 2.93336 19 2.93336C28.0795 2.93336 35.4667 10.3206 35.4667 19.4C35.4667 28.4795 28.0795 35.8667 19 35.8667Z" fill="white"/>
</svg>
