<svg width="38" height="39" viewBox="0 0 38 39" fill="none" xmlns="http://www.w3.org/2000/svg">
<path fill-rule="evenodd" clip-rule="evenodd" d="M12.1919 5.86777V27.3227C10.9424 25.7767 9.03372 24.7839 6.89674 24.7839C3.14284 24.7839 0.0886536 27.838 0.0886536 31.5919C0.0886536 35.3458 3.14284 38.4 6.89674 38.4C10.6506 38.4 13.7048 35.3458 13.7048 31.5919V7.09228L36.3985 2.26752V22.7154C35.1494 21.1694 33.2412 20.1766 31.1033 20.1766C27.3494 20.1766 24.2952 23.2308 24.2952 26.9847C24.2952 30.7386 27.3494 33.7927 31.1033 33.7927C34.8572 33.7927 37.9114 30.7386 37.9114 26.9847V0.400024L12.1919 5.86777ZM6.89674 36.8871C3.97683 36.8871 1.60156 34.5114 1.60156 31.5919C1.60156 28.6716 3.97683 26.2968 6.89674 26.2968C9.81665 26.2968 12.1919 28.6716 12.1919 31.5919C12.1919 34.5109 9.81571 36.8871 6.89674 36.8871ZM31.1033 32.2798C28.1834 32.2798 25.8081 29.9046 25.8081 26.9847C25.8081 24.0657 28.1834 21.6895 31.1033 21.6895C34.0232 21.6895 36.3985 24.0657 36.3985 26.9847C36.3985 29.9055 34.0222 32.2798 31.1033 32.2798Z" fill="white"/>
</svg>
