<svg width="38" height="39" viewBox="0 0 38 39" fill="none" xmlns="http://www.w3.org/2000/svg">
<path d="M19 0.400024C15.2422 0.400024 11.5687 1.51435 8.44417 3.6021C5.31964 5.68985 2.88436 8.65724 1.4463 12.129C0.00823234 15.6008 -0.368031 19.4211 0.365088 23.1067C1.09821 26.7924 2.90778 30.1779 5.56498 32.835C8.22218 35.4922 11.6077 37.3018 15.2933 38.0349C18.9789 38.7681 22.7992 38.3918 26.271 36.9537C29.7428 35.5157 32.7102 33.0804 34.7979 29.9559C36.8857 26.8313 38 23.1579 38 19.4C38 14.3609 35.9982 9.52818 32.435 5.96499C28.8718 2.4018 24.0391 0.400024 19 0.400024V0.400024ZM19 28.9C17.1211 28.9 15.2844 28.3429 13.7221 27.299C12.1598 26.2551 10.9422 24.7714 10.2232 23.0355C9.50412 21.2996 9.31599 19.3895 9.68255 17.5467C10.0491 15.7038 10.9539 14.0111 12.2825 12.6825C13.6111 11.3539 15.3038 10.4491 17.1466 10.0826C18.9895 9.716 20.8996 9.90413 22.6355 10.6232C24.3714 11.3422 25.8551 12.5598 26.899 14.1221C27.9428 15.6844 28.5 17.5211 28.5 19.4C28.5 21.9196 27.4991 24.3359 25.7175 26.1175C23.9359 27.8991 21.5196 28.9 19 28.9Z" fill="white"/>
</svg>
