<svg width="36" height="39" viewBox="0 0 36 39" fill="none" xmlns="http://www.w3.org/2000/svg">
<path fill-rule="evenodd" clip-rule="evenodd" d="M27.3008 27.5934L35.4721 37.182L34.0548 38.4L25.8613 28.8114C23.0415 30.952 19.8675 32.0223 16.3391 32.0223C14.1984 32.0223 12.1501 31.6053 10.194 30.7712C8.23795 29.9371 6.55496 28.8151 5.14503 27.4052C3.73511 25.9953 2.61312 24.3124 1.77909 22.3562C0.945046 20.4001 0.527997 18.3518 0.527939 16.2112C0.527881 14.0706 0.944929 12.0222 1.77909 10.0661C2.61324 8.10998 3.73522 6.42699 5.14503 5.01712C6.55484 3.60725 8.23783 2.48527 10.194 1.65117C12.1502 0.817073 14.1985 0.400024 16.3391 0.400024C18.4796 0.400024 20.528 0.817073 22.4842 1.65117C24.4403 2.48527 26.1233 3.60725 27.5331 5.01712C28.9429 6.42699 30.0649 8.10998 30.8991 10.0661C31.7332 12.0222 32.1503 14.0706 32.1502 16.2112C32.1502 18.4108 31.7221 20.4924 30.8659 22.4559C30.0096 24.4194 28.8212 26.1319 27.3006 27.5935L27.3008 27.5934ZM16.3393 30.1621C18.8637 30.1621 21.1963 29.5384 23.3369 28.2908C25.4776 27.0433 27.1717 25.3493 28.4191 23.2087C29.6666 21.068 30.2903 18.7355 30.2904 16.211C30.2904 13.6865 29.6667 11.3539 28.4191 9.21333C27.1715 7.07272 25.4775 5.37868 23.3369 4.13123C21.1964 2.88377 18.8638 2.26005 16.3393 2.26005C13.8147 2.26005 11.4821 2.88377 9.34159 4.13123C7.20104 5.37868 5.50701 7.07272 4.25949 9.21333C3.01198 11.3539 2.38825 13.6865 2.38831 16.211C2.38837 18.7355 3.01209 21.068 4.25949 23.2087C5.50689 25.3493 7.20092 27.0433 9.34159 28.2908C11.4823 29.5384 13.8148 30.1621 16.3393 30.1621Z" fill="white"/>
</svg>
