<svg width="36" height="39" viewBox="0 0 36 39" fill="none" xmlns="http://www.w3.org/2000/svg">
<path d="M27.4401 26.5182L35.5502 36.0236L32.7596 38.4L24.6713 28.9164C22.0551 30.6605 19.17 31.5325 16.016 31.5325C13.9085 31.5325 11.8919 31.122 9.96612 30.3008C8.04037 29.4796 6.38344 28.375 4.99535 26.987C3.60726 25.5989 2.50266 23.942 1.68154 22.0162C0.860415 20.0904 0.449825 18.0737 0.449768 15.9663C0.449711 13.8588 0.8603 11.8422 1.68154 9.91638C2.50277 7.99056 3.60738 6.33364 4.99535 4.94561C6.38333 3.55758 8.04025 2.45297 9.96612 1.63179C11.892 0.810614 13.9086 0.400024 16.016 0.400024C18.1234 0.400024 20.1401 0.810614 22.0659 1.63179C23.9918 2.45297 25.6487 3.55758 27.0367 4.94561C28.4247 6.33364 29.5293 7.99056 30.3505 9.91638C31.1718 11.8422 31.5823 13.8588 31.5823 15.9663C31.5823 17.3034 31.4152 18.6115 31.0809 19.8905C30.7466 21.1695 30.2706 22.3614 29.6529 23.466C29.0351 24.5706 28.2975 25.588 27.44 26.5182H27.4401ZM16.0161 27.8698C17.6294 27.8698 19.17 27.5536 20.638 26.9214C22.106 26.2891 23.3705 25.4425 24.4314 24.3815C25.4924 23.3206 26.339 22.0561 26.9713 20.5881C27.6036 19.1201 27.9197 17.5795 27.9197 15.9662C27.9197 14.3529 27.6036 12.8123 26.9713 11.3443C26.339 9.87632 25.4924 8.61181 24.4314 7.55079C23.3705 6.48976 22.106 5.64314 20.638 5.01094C19.17 4.37873 17.6294 4.06262 16.0161 4.06262C14.4028 4.06262 12.8622 4.37873 11.3942 5.01094C9.92623 5.64314 8.66173 6.48979 7.6007 7.55087C6.53968 8.61196 5.69306 9.87643 5.06085 11.3443C4.42864 12.8122 4.11254 14.3528 4.11254 15.9662C4.11254 17.5796 4.42864 19.1202 5.06085 20.5881C5.69306 22.056 6.53971 23.3204 7.60079 24.3815C8.66187 25.4426 9.92635 26.2892 11.3942 26.9214C12.8621 27.5535 14.4027 27.8697 16.0161 27.8698Z" fill="white"/>
</svg>
